# xmcd
#
# Track frame offsets:
#	150
#	14457
#	28977
#	42205
#	52370
#	68545
#	84345
#	96787
#	109687
#	122315
#	135530
#	143310
#
# Disc length: 2035 seconds
#
# Revision: 1
# Processed by: cddbd v1.5.1PL0 Copyright (c) Steve Scherf et al.
# Submitted via: audiograbber 1.83.01
#
DISCID=9607f10c
DTITLE=Wilk&Friends - Alles Super
DYEAR=2005
DGENRE=Country
TTITLE0=Für Mich Ist Alles Super
TTITLE1=Früh Ohne Frühstück
TTITLE2=Lebenslauf
TTITLE3=Trag's Wie Ein Mann
TTITLE4=Vom Ersten Blick An
TTITLE5=Stell Dein Herz Auf Empfang
TTITLE6=Mach Nicht Alles Kaputt
TTITLE7=Will Nicht Nur Träumen
TTITLE8=Ein Lächeln
TTITLE9=Junge, Bleib Cool
TTITLE10=Country Doodle
TTITLE11=Der Money-Song
EXTD=Country Music from GERMANY
EXTT0=
EXTT1=
EXTT2=
EXTT3=
EXTT4=
EXTT5=
EXTT6=
EXTT7=
EXTT8=
EXTT9=
EXTT10=
EXTT11=
PLAYORDER=
